PathFileType	4	(X/Y/Z)	30_2_28_p1_0-244_filt_butterworth.trc
DataRate	CameraRate	NumFrames	NumMarkers	Units	OrigDataRate	OrigDataStartFrame	OrigNumFrames
60.0	60.0	7	27	m	60.0	122	244
Frame#	Time	RHip			RKnee			RAnkle			RBigToe			RSmallToe			RHeel			LHip			LKnee			LAnkle			LBigToe			LSmallToe			LHeel			Neck			Head			Nose			RShoulder			RElbow			RWrist			RThumb			RIndex			RPinky			LShoulder			LElbow			LWrist			LThumb			LIndex			LPinky			
		X1	Y1	Z1	X2	Y2	Z2	X3	Y3	Z3	X4	Y4	Z4	X5	Y5	Z5	X6	Y6	Z6	X7	Y7	Z7	X8	Y8	Z8	X9	Y9	Z9	X10	Y10	Z10	X11	Y11	Z11	X12	Y12	Z12	X13	Y13	Z13	X14	Y14	Z14	X15	Y15	Z15	X16	Y16	Z16	X17	Y17	Z17	X18	Y18	Z18	X19	Y19	Z19	X20	Y20	Z20	X21	Y21	Z21	X22	Y22	Z22	X23	Y23	Z23	X24	Y24	Z24	X25	Y25	Z25	X26	Y26	Z26	X27	Y27	Z27	
122	2.033333333333333	0.28307681000860124	0.5263354235362432	0.8863927581707205	0.27842831245570365	0.5251486315427901	1.3458315247305253	0.2605556985912195	0.5701128208919113	1.8135589954063158	0.22829350975946616	0.30033430971721614	1.7503291568801465	0.2979083768079605	0.35650281552292434	1.7769803248624088	0.2608719118623554	0.6378830355608599	1.8820099466496374	0.0538489658886013	0.5443688482262841	0.9047123013738888	0.07568007681979994	0.5382032933374621	1.356860381840448	0.09123862018634314	0.5610482963755633	1.802910779497838	0.09605650815338825	0.31780378615986976	1.758143989069402	0.046716203146739736	0.37697986625261426	1.789250699930756	0.1202051883127354	0.6318535959386499	1.8748234844351779	0.14764216751190773	0.5284391022767235	0.24425823787540069	0.14934216892818225	0.48058089826122935	-0.007017813242586606	0.15663148105500777	0.4268759949349029	0.12018865481212831	0.3392794955530253	0.5338895275710848	0.36188034450103357	0.38096771156424264	0.4821963066801537	0.6284620585566906	0.25357758076306525	0.32612458944846745	0.8093803289209157	0.15383529020573056	0.347756470916733	0.9024995389901338	0.1416300091868281	0.3469026345877457	0.9259669904812637	0.14846816778867417	0.34517283627301437	0.9173573431480473	-0.023051177310920015	0.5210258976578636	0.36641744844706947	-0.045344272205334095	0.4811881546636284	0.6333738950376695	0.09057910655482497	0.399135116238489	0.8318079836095286	0.19323525209926642	0.3537789848676864	0.8722825053965749	0.1908403050783068	0.3483265310389009	0.9312245475169129	0.15068465992295205	0.3338658959906308	0.9267575965742301
123	2.05	0.2829703480094068	0.5266263006379917	0.8855567659734045	0.2784354757449211	0.5251619563594307	1.3458506257091594	0.2605059916442476	0.5700160918767976	1.813482774380201	0.22886985382542338	0.3008789387380822	1.7505491548867025	0.2987677524765784	0.35246010767220187	1.7742710050762611	0.26078365045948315	0.637933019543814	1.8818764459066217	0.05388091771302142	0.5443795877506682	0.9049090110098863	0.07572051616129331	0.538232981327381	1.3570123841313728	0.09147637751837667	0.5620077463171032	1.8046021191959252	0.0960641716660268	0.3179219465459152	1.7581262580604868	0.04715922853425432	0.37699275856201664	1.78919613013845	0.11961775889827568	0.6349132383701257	1.8794882637025014	0.14747713254856762	0.5279580049159722	0.24340928194952782	0.14935023576730236	0.48065316196569313	-0.007018266582412015	0.15664978267827293	0.4268865192183012	0.12023622693278328	0.3392844236323099	0.5338741504103979	0.3618654292012816	0.38097728223287786	0.4821819933155573	0.628406651599237	0.2549286050633091	0.3264551613116342	0.8094124296692395	0.15430702360529408	0.3464302537179143	0.8997953463151946	0.14153990773211486	0.34738119227656356	0.9252000793760605	0.148582618624771	0.3452167857952236	0.9183541082896545	-0.023019821721358105	0.5207658287281478	0.3668548042668617	-0.045215330548392045	0.48094127198206416	0.6341534390597336	0.09062117086144064	0.39924886379326985	0.8318757218762665	0.19330430203325105	0.3518233426122395	0.8698535963421581	0.19055133304302455	0.3472375463189831	0.9312499740650102	0.15031921839843343	0.3328572172350289	0.9267816393288094
124	2.066666666666667	0.28240515557695184	0.526888367007837	0.8842591409501502	0.27845676493250565	0.5251857660732151	1.34587139584043	0.2604961286310743	0.5699821609949701	1.8134541065306755	0.22904601920124873	0.30133362007262704	1.7507314396316151	0.29908196044610813	0.3508572551501787	1.7732138896075118	0.26062705587019946	0.6380571371437458	1.8816886901670662	0.05390065117431814	0.5444078305528408	0.9050121970684718	0.0757462928199113	0.5382512499902827	1.3571379528050291	0.09161226232772599	0.5625468054474537	1.8054956977911694	0.09609466096458091	0.31803302087421476	1.7581307776595834	0.04818503497176827	0.3778661691919394	1.7896601497195939	0.11914768593859455	0.6409535157396193	1.8846742221932886	0.14737152930160363	0.5276965792601568	0.24226696637062095	0.14934745488419476	0.4807059404432246	-0.007033219426252855	0.1566520228808947	0.4268882334220727	0.12026527953691074	0.3392958649158924	0.5338592159441838	0.3618480211769843	0.3813179832445695	0.48088762395925516	0.6275899416088736	0.2560048284358655	0.32671343835753924	0.8094455603858651	0.15511703058401677	0.34188574931106186	0.8962924928357602	0.1414195396639901	0.34744699191484435	0.9242619130592643	0.148776906475931	0.3451756868287022	0.9196179882589302	-0.023115238405205525	0.5209844529856186	0.36699096172576584	-0.04512730326998836	0.4812640737344644	0.6358636240635386	0.09029147789966498	0.3989575245446984	0.8317968011335191	0.19249495964981292	0.3457875311136508	0.8675947251597422	0.18903127503260522	0.3434955656408053	0.9301321710822877	0.1503169131629595	0.3327273505671473	0.927103062073382
125	2.083333333333333	0.28118962742404996	0.5269241778662316	0.8826869850508171	0.2784925928214154	0.525219498740581	1.3458809340399707	0.26050378510637595	0.5699719566690101	1.8134471946882376	0.22905762014769046	0.3016183212806704	1.7508487032431976	0.2990523934415015	0.3508106720569504	1.7731931895353803	0.2605537344314126	0.6381575227912001	1.881810212328263	0.05388047169569683	0.5444784798879616	0.9047317740654397	0.07576565996293529	0.5382770740872069	1.3571988007135496	0.09164142706240722	0.5626629632459389	1.8056973818869309	0.0961401616661997	0.31815930241630525	1.7581530425712832	0.04936196172178591	0.3786066556955733	1.790043391020022	0.11884459701245309	0.6463827977175722	1.8886339631759308	0.147637480538753	0.5286299916625856	0.24146081145393744	0.14933812791417017	0.4807157418748193	-0.0070448819760012184	0.15664026187709623	0.42687871642705244	0.12026859543629673	0.3393129116283506	0.5338618243162526	0.3618360454501087	0.38215198505970477	0.4775398288250253	0.625601011303156	0.2565255618957764	0.32679109056363703	0.8094338845964492	0.15568348716262814	0.33426306748399304	0.8921106890294034	0.14132250056537649	0.3460192957355566	0.9233175259861779	0.14900766410071598	0.34493316414281017	0.9205158025454121	-0.023194379353008308	0.5212161950995351	0.3666148858986392	-0.04552849048619581	0.48156293387537763	0.6375372243129087	0.08904930478201303	0.3976407054482673	0.8312818268656398	0.19072415636775286	0.3367121492227161	0.8649060386914117	0.18611204204595194	0.3368618363487006	0.9277995355994926	0.1503945018115171	0.33269565092177533	0.9277062651170643
126	2.1	0.27966118253329597	0.5267861885748512	0.8807918882392001	0.27852906362683355	0.5252496354166774	1.3458718617231704	0.26051750327052414	0.5699699620803806	1.8134507593784703	0.22908647458731982	0.3017161693223842	1.7508755808407406	0.29895185677927083	0.3511078749526972	1.7734022894251167	0.26069045676642744	0.6381359262817653	1.882870080522838	0.05377827770184917	0.5445805654200802	0.9037546169628461	0.07580261018757017	0.5383350976524282	1.3572156030620246	0.09161010016556327	0.562644252488978	1.8056792823714192	0.09617963833033864	0.3182522668048214	1.75815963488261	0.05025371687079519	0.3786866833521849	1.7901377480283982	0.11866516904932722	0.6489326569695327	1.8909008509756433	0.14849397809838732	0.531435353224273	0.24132429358372262	0.14931478938813256	0.4806910601646385	-0.007046695225596405	0.15662937969891616	0.4268747899078961	0.1202587957705366	0.33933612792756424	0.5338931423439082	0.3618343915905533	0.38314168348213984	0.47276059465073494	0.6229383878431525	0.2566492031228459	0.32668742922840244	0.8093708604745435	0.155279511098081	0.32651065376572547	0.8883850313029806	0.14134598588903258	0.3424634940200117	0.9220406596293274	0.1492328698417355	0.34434414671759606	0.9208672871484175	-0.023254800034655493	0.5212905850113592	0.3656070225656575	-0.0466467689587232	0.4814658367539577	0.6381527362090539	0.08706479628931629	0.39522288971440367	0.830195403341515	0.1885880644410719	0.3275460396988963	0.8619705333274269	0.1823579836620743	0.32958581290015443	0.9249547633760291	0.1504348388402247	0.33238290457406516	0.9283649412659302
127	2.1166666666666667	0.2785125365527297	0.5266422301912581	0.8787923609851549	0.2785479764398498	0.5252606172123491	1.345836949748778	0.260543637340974	0.5699857723010519	1.8134775263022094	0.2291467030611709	0.30167504941554774	1.7508241838445833	0.2989502710995619	0.3511037767936703	1.7734496881013548	0.26103017109693116	0.637975713323294	1.885010038233738	0.05357420404068442	0.544657250534123	0.9021265653395621	0.07588621609561821	0.5384314561998567	1.3572137735892433	0.09155597948380591	0.5626382493656331	1.8056678551088559	0.09617876080142941	0.31816547071543855	1.758089183378599	0.05055587538742544	0.3782017546275185	1.7903171923044816	0.11852874165226418	0.6492887954993312	1.8916299122875317	0.1496679385133764	0.5352452780275218	0.2416142994540025	0.14925737372584152	0.4806519337499884	-0.007042277291421996	0.15662349311722415	0.4268820484579585	0.12024572180383114	0.3393626960830657	0.5339422576933789	0.3618425276562409	0.3834039925904605	0.4678915799497367	0.6206833003455631	0.2565098520623365	0.32638944419309013	0.8093766550921397	0.1536118429348096	0.321962325085963	0.8864181800778561	0.1416648605885565	0.3377860449662939	0.9203695636946838	0.14937701117546123	0.3428085533874999	0.9210787780431123	-0.023317146430579055	0.5211390324286432	0.36427464750470384	-0.0481195931006639	0.4809829532370269	0.6377993249766708	0.0852087373177835	0.3921545476101333	0.8288679750963737	0.1867413109227449	0.32072339183165466	0.8599735989758668	0.17887230366913093	0.3243346698363262	0.9222790672232313	0.1504426829568224	0.33171527154821173	0.9288124802590021
128	2.1333333333333333	0.2780424591844229	0.5264947109901945	0.8775536477751471	0.27854462421314197	0.5252513261961621	1.3457793935429192	0.2605804460301204	0.5700262319345567	1.813518912982658	0.2292113822552876	0.30157951859769605	1.7507189906970413	0.299170060606332	0.35071866888200937	1.7732932318223704	0.26136095713601515	0.6376976036238567	1.8870720129520349	0.053317830417288284	0.544647372472419	0.9003972626180208	0.07601500297637623	0.538540516470601	1.3572002363584041	0.09152753492473922	0.5625537745328796	1.8055832058822276	0.096127125529028	0.3178504888905873	1.7579387680217329	0.05046508742234827	0.37758117582280043	1.7910570628684523	0.1184325554398274	0.6488317220668716	1.8909885369697088	0.15055154089371348	0.538137790111663	0.24192201974280125	0.14917570017873524	0.4806116449242329	-0.0070381498625173905	0.15662046149519715	0.42689130436781464	0.12023000066180864	0.3393856792602428	0.5339834271966029	0.3618553213776561	0.3821719670686566	0.4632685031807526	0.6192814966439073	0.25599165904059773	0.32585484896699507	0.8096992655714459	0.15124327050303263	0.3217898410196865	0.8860665213159825	0.14245675767790383	0.33399099493885676	0.9189713967256793	0.14932114694635504	0.33964277586017516	0.9216152891359936	-0.023374910946002643	0.5208126352080351	0.36324081414850523	-0.049231709531545785	0.48046889745414734	0.6372410496283538	0.08404239178894604	0.3880968820191547	0.8278481667058644	0.18503952675541663	0.3170603547439123	0.8594103853322774	0.1764087207581459	0.32195900975033975	0.919662044689219	0.15047149973818105	0.3308023458573571	0.929364237694691
